<svg width="375" height="477" viewBox="0 0 375 477" fill="none" xmlns="http://www.w3.org/2000/svg">
<path opacity="0.2" d="M107.245 0.359615C101.562 0.161882 95.7386 0.359615 90.4084 2.35107C75.9056 7.76754 69.0314 25.4858 71.2664 40.8313C73.5014 56.1768 82.6952 69.5026 92.2345 81.7126C101.774 93.9227 112.11 105.977 117.341 120.553C119.95 127.834 121.17 135.99 118.519 143.257C114.429 154.464 102.098 160.728 90.2604 162.028C78.4226 163.327 66.5355 160.792 54.6555 159.909C49.6708 159.556 44.5451 159.514 39.8495 161.152C34.6956 162.939 30.4019 166.583 26.4536 170.382C11.0484 185.282 -1.2829 205.621 0.712379 226.976C2.96853 251.184 23.0906 270.322 45.1303 280.583C52.4276 283.987 60.1478 286.741 66.5708 291.599C83.4919 304.41 87.2921 328.413 85.6071 349.606C83.922 370.798 78.1829 392.012 81.3768 413.021C85.1347 437.456 101.767 459.524 124.201 469.834C144.189 479.015 169.204 478.443 186.951 465.456C195.601 459.1 202.144 450.336 207.834 441.248C216.422 427.536 223.39 412.872 228.598 397.549C231.072 390.268 233.399 382.436 239.173 377.373C242.699 374.259 247.267 372.514 251.787 371.159C265.408 367.077 279.756 365.954 293.504 362.324C307.253 358.694 321.086 351.929 328.559 339.832C339.135 322.664 334.2 300.709 334.249 280.512C334.333 234.497 361.823 193.298 371.969 148.455C375.283 133.794 376.516 117.573 369.113 104.501C364.079 95.5822 355.598 89.2265 346.679 84.2832C327.079 73.3796 304.799 68.5281 282.879 63.8037C252.414 57.2502 215.42 56.4028 191.808 35.203C169.148 14.8647 138.147 0.359615 107.245 0.359615Z" fill="#2091F9"/>
</svg>
